<svg width="102" height="89" viewBox="0 0 102 89" fill="none" xmlns="http://www.w3.org/2000/svg">
<g filter="url(#filter0_ddd_372_12)">
<mask id="path-1-inside-1_372_12" fill="white">
<path d="M88.1093 38.5177L78.47 19.8415C78.3229 19.5639 78.0918 19.3355 77.8081 19.1985L57.9972 9.4264C57.717 9.28936 57.3983 9.24368 57.09 9.29287L37.8431 12.5608C37.5769 12.6065 37.3177 12.6943 37.0795 12.8208L24.7363 19.4234C24.4771 19.5639 24.2494 19.7572 24.0743 19.9961L14.0078 33.5421C13.689 33.9708 13.5874 34.5189 13.7275 35.0355L17.8676 50.1064C17.9937 50.5597 18.386 50.8865 18.8554 50.9217L31.8922 51.909C32.1829 51.9301 32.4491 52.0883 32.6067 52.3342L36.4981 58.2797C36.6767 58.5503 36.9324 58.7576 37.2337 58.87L47.9587 62.9356C48.1969 63.0269 48.4596 63.0375 48.7047 62.9637L57.2792 60.6761C57.5314 60.6023 57.8046 60.6902 57.9692 60.901L64.6382 69.9563C65.09 70.5396 65.9727 70.515 66.393 69.9106L69.3037 65.6307C69.4928 65.3426 69.759 65.1106 70.0707 64.9595L76.5856 61.8287C76.7818 61.7338 76.9464 61.5792 77.048 61.3859L80.7467 54.4882C80.8448 54.309 80.9954 54.1649 81.1811 54.0806L84.1408 52.9245C84.3685 52.8226 84.5401 52.6224 84.6066 52.3799L88.2319 39.6738C88.3404 39.2837 88.2949 38.8691 88.1058 38.5142L88.1093 38.5177ZM78.2739 23.7665L84.4875 36.3532C84.5541 36.4867 84.6066 36.6308 84.6277 36.7818C84.7187 37.4108 84.358 37.8641 83.6539 37.8606L69.4123 36.8838C68.6872 36.8346 68.2914 36.0158 68.6977 35.4114L76.6522 23.6505C77.055 23.0532 77.9551 23.1129 78.2739 23.763V23.7665ZM41.647 13.8644L55.9902 11.3661C56.6522 11.2501 57.3352 11.3485 57.9377 11.6472L74.7327 19.9821C75.5208 20.3756 75.7905 21.37 75.3037 22.1079L66.5646 35.3658C66.1548 35.9877 65.2932 36.1072 64.7292 35.6223L41.2336 15.3648C40.6837 14.8905 40.9324 13.9874 41.647 13.8609V13.8644ZM38.978 18.45C39.069 17.6313 40.0322 17.2377 40.6697 17.7613L62.5191 36.0896C63.1321 36.5921 62.9814 37.576 62.2424 37.8676L37.3072 47.7521C36.5787 48.0403 35.8046 47.4464 35.8921 46.6664L38.9745 18.45H38.978ZM27.3072 49.6285L20.6067 49.2877C20.1619 49.2561 19.731 48.859 19.5594 48.353L17.3668 40.5452C17.2232 39.5367 18.4176 38.9042 19.1671 39.5894L28.0603 47.7381C28.8028 48.4163 28.309 49.6531 27.3072 49.6285ZM31.9587 48.3917L17.0725 35.2428C16.4211 34.6665 16.316 33.6826 16.8309 32.9834L24.9079 22.006C25.2792 21.5036 25.7626 21.0924 26.3195 20.8113L35.8886 15.9481C36.5506 15.6108 37.3142 16.1555 37.2231 16.8899L33.3212 47.8751C33.2372 48.5322 32.4561 48.8309 31.9587 48.3917ZM48.435 60.0577C48.1618 60.4407 47.6645 60.5953 47.2231 60.4302L39.3457 57.4961C38.4771 57.1728 37.745 56.5649 37.2687 55.7673L34.9289 51.8669C34.6312 51.3714 34.8519 50.7249 35.3913 50.5175L60.1408 40.9036C60.9604 40.5839 61.689 41.5291 61.1776 42.2459L48.4385 60.0577H48.435ZM58.2949 58.0829L53.8676 59.5412C52.9569 59.8398 52.1969 58.7962 52.7573 58.0197L64.1548 42.1862C64.5506 41.6029 65.4473 41.7926 65.5804 42.4813L67.3842 51.9336C67.4753 52.4045 67.2581 52.8824 66.8448 53.1248L58.6732 57.9213C58.5541 57.9915 58.4245 58.0443 58.2879 58.0829H58.2949ZM67.4508 65.202L66.3825 66.8149C65.9762 67.4263 65.083 67.4333 64.6697 66.8289L60.2809 60.4231C59.9727 59.9734 60.1023 59.3549 60.5646 59.0703L66.3825 55.8059C66.8729 55.5283 67.4858 55.8586 67.5278 56.4244L68.0182 63.0304C68.0743 63.7965 67.8746 64.559 67.4508 65.202ZM77.7695 55.5318L75.6995 59.8012C75.5804 60.0472 75.3877 60.2545 75.1496 60.388L71.1881 62.1976C70.6312 62.5104 69.9412 62.1274 69.9096 61.4878L69.6294 55.2296C69.6014 54.6745 70.0427 54.2141 70.5961 54.2141L77.1846 54.5093C77.7065 54.5093 78.0357 55.0786 77.773 55.5318H77.7695ZM85.4368 41.1004L82.9639 50.746C82.8798 51.0692 82.6557 51.3363 82.351 51.4768L80.6137 52.2745C80.2704 52.4326 79.8991 52.5134 79.5208 52.5134H70.1478C69.752 52.5134 69.4158 52.2288 69.3562 51.8458L67.4228 39.9057C67.3387 39.3786 67.7695 38.9113 68.3054 38.9429L84.6101 39.9724C85.1811 40.0076 85.5804 40.5487 85.4403 41.1004H85.4368Z"/>
</mask>
<path d="M88.1093 38.5177L78.47 19.8415C78.3229 19.5639 78.0918 19.3355 77.8081 19.1985L57.9972 9.4264C57.717 9.28936 57.3983 9.24368 57.09 9.29287L37.8431 12.5608C37.5769 12.6065 37.3177 12.6943 37.0795 12.8208L24.7363 19.4234C24.4771 19.5639 24.2494 19.7572 24.0743 19.9961L14.0078 33.5421C13.689 33.9708 13.5874 34.5189 13.7275 35.0355L17.8676 50.1064C17.9937 50.5597 18.386 50.8865 18.8554 50.9217L31.8922 51.909C32.1829 51.9301 32.4491 52.0883 32.6067 52.3342L36.4981 58.2797C36.6767 58.5503 36.9324 58.7576 37.2337 58.87L47.9587 62.9356C48.1969 63.0269 48.4596 63.0375 48.7047 62.9637L57.2792 60.6761C57.5314 60.6023 57.8046 60.6902 57.9692 60.901L64.6382 69.9563C65.09 70.5396 65.9727 70.515 66.393 69.9106L69.3037 65.6307C69.4928 65.3426 69.759 65.1106 70.0707 64.9595L76.5856 61.8287C76.7818 61.7338 76.9464 61.5792 77.048 61.3859L80.7467 54.4882C80.8448 54.309 80.9954 54.1649 81.1811 54.0806L84.1408 52.9245C84.3685 52.8226 84.5401 52.6224 84.6066 52.3799L88.2319 39.6738C88.3404 39.2837 88.2949 38.8691 88.1058 38.5142L88.1093 38.5177ZM78.2739 23.7665L84.4875 36.3532C84.5541 36.4867 84.6066 36.6308 84.6277 36.7818C84.7187 37.4108 84.358 37.8641 83.6539 37.8606L69.4123 36.8838C68.6872 36.8346 68.2914 36.0158 68.6977 35.4114L76.6522 23.6505C77.055 23.0532 77.9551 23.1129 78.2739 23.763V23.7665ZM41.647 13.8644L55.9902 11.3661C56.6522 11.2501 57.3352 11.3485 57.9377 11.6472L74.7327 19.9821C75.5208 20.3756 75.7905 21.37 75.3037 22.1079L66.5646 35.3658C66.1548 35.9877 65.2932 36.1072 64.7292 35.6223L41.2336 15.3648C40.6837 14.8905 40.9324 13.9874 41.647 13.8609V13.8644ZM38.978 18.45C39.069 17.6313 40.0322 17.2377 40.6697 17.7613L62.5191 36.0896C63.1321 36.5921 62.9814 37.576 62.2424 37.8676L37.3072 47.7521C36.5787 48.0403 35.8046 47.4464 35.8921 46.6664L38.9745 18.45H38.978ZM27.3072 49.6285L20.6067 49.2877C20.1619 49.2561 19.731 48.859 19.5594 48.353L17.3668 40.5452C17.2232 39.5367 18.4176 38.9042 19.1671 39.5894L28.0603 47.7381C28.8028 48.4163 28.309 49.6531 27.3072 49.6285ZM31.9587 48.3917L17.0725 35.2428C16.4211 34.6665 16.316 33.6826 16.8309 32.9834L24.9079 22.006C25.2792 21.5036 25.7626 21.0924 26.3195 20.8113L35.8886 15.9481C36.5506 15.6108 37.3142 16.1555 37.2231 16.8899L33.3212 47.8751C33.2372 48.5322 32.4561 48.8309 31.9587 48.3917ZM48.435 60.0577C48.1618 60.4407 47.6645 60.5953 47.2231 60.4302L39.3457 57.4961C38.4771 57.1728 37.745 56.5649 37.2687 55.7673L34.9289 51.8669C34.6312 51.3714 34.8519 50.7249 35.3913 50.5175L60.1408 40.9036C60.9604 40.5839 61.689 41.5291 61.1776 42.2459L48.4385 60.0577H48.435ZM58.2949 58.0829L53.8676 59.5412C52.9569 59.8398 52.1969 58.7962 52.7573 58.0197L64.1548 42.1862C64.5506 41.6029 65.4473 41.7926 65.5804 42.4813L67.3842 51.9336C67.4753 52.4045 67.2581 52.8824 66.8448 53.1248L58.6732 57.9213C58.5541 57.9915 58.4245 58.0443 58.2879 58.0829H58.2949ZM67.4508 65.202L66.3825 66.8149C65.9762 67.4263 65.083 67.4333 64.6697 66.8289L60.2809 60.4231C59.9727 59.9734 60.1023 59.3549 60.5646 59.0703L66.3825 55.8059C66.8729 55.5283 67.4858 55.8586 67.5278 56.4244L68.0182 63.0304C68.0743 63.7965 67.8746 64.559 67.4508 65.202ZM77.7695 55.5318L75.6995 59.8012C75.5804 60.0472 75.3877 60.2545 75.1496 60.388L71.1881 62.1976C70.6312 62.5104 69.9412 62.1274 69.9096 61.4878L69.6294 55.2296C69.6014 54.6745 70.0427 54.2141 70.5961 54.2141L77.1846 54.5093C77.7065 54.5093 78.0357 55.0786 77.773 55.5318H77.7695ZM85.4368 41.1004L82.9639 50.746C82.8798 51.0692 82.6557 51.3363 82.351 51.4768L80.6137 52.2745C80.2704 52.4326 79.8991 52.5134 79.5208 52.5134H70.1478C69.752 52.5134 69.4158 52.2288 69.3562 51.8458L67.4228 39.9057C67.3387 39.3786 67.7695 38.9113 68.3054 38.9429L84.6101 39.9724C85.1811 40.0076 85.5804 40.5487 85.4403 41.1004H85.4368Z" fill="white"/>
<path d="M88.1093 38.5177L78.47 19.8415C78.3229 19.5639 78.0918 19.3355 77.8081 19.1985L57.9972 9.4264C57.717 9.28936 57.3983 9.24368 57.09 9.29287L37.8431 12.5608C37.5769 12.6065 37.3177 12.6943 37.0795 12.8208L24.7363 19.4234C24.4771 19.5639 24.2494 19.7572 24.0743 19.9961L14.0078 33.5421C13.689 33.9708 13.5874 34.5189 13.7275 35.0355L17.8676 50.1064C17.9937 50.5597 18.386 50.8865 18.8554 50.9217L31.8922 51.909C32.1829 51.9301 32.4491 52.0883 32.6067 52.3342L36.4981 58.2797C36.6767 58.5503 36.9324 58.7576 37.2337 58.87L47.9587 62.9356C48.1969 63.0269 48.4596 63.0375 48.7047 62.9637L57.2792 60.6761C57.5314 60.6023 57.8046 60.6902 57.9692 60.901L64.6382 69.9563C65.09 70.5396 65.9727 70.515 66.393 69.9106L69.3037 65.6307C69.4928 65.3426 69.759 65.1106 70.0707 64.9595L76.5856 61.8287C76.7818 61.7338 76.9464 61.5792 77.048 61.3859L80.7467 54.4882C80.8448 54.309 80.9954 54.1649 81.1811 54.0806L84.1408 52.9245C84.3685 52.8226 84.5401 52.6224 84.6066 52.3799L88.2319 39.6738C88.3404 39.2837 88.2949 38.8691 88.1058 38.5142L88.1093 38.5177ZM78.2739 23.7665L84.4875 36.3532C84.5541 36.4867 84.6066 36.6308 84.6277 36.7818C84.7187 37.4108 84.358 37.8641 83.6539 37.8606L69.4123 36.8838C68.6872 36.8346 68.2914 36.0158 68.6977 35.4114L76.6522 23.6505C77.055 23.0532 77.9551 23.1129 78.2739 23.763V23.7665ZM41.647 13.8644L55.9902 11.3661C56.6522 11.2501 57.3352 11.3485 57.9377 11.6472L74.7327 19.9821C75.5208 20.3756 75.7905 21.37 75.3037 22.1079L66.5646 35.3658C66.1548 35.9877 65.2932 36.1072 64.7292 35.6223L41.2336 15.3648C40.6837 14.8905 40.9324 13.9874 41.647 13.8609V13.8644ZM38.978 18.45C39.069 17.6313 40.0322 17.2377 40.6697 17.7613L62.5191 36.0896C63.1321 36.5921 62.9814 37.576 62.2424 37.8676L37.3072 47.7521C36.5787 48.0403 35.8046 47.4464 35.8921 46.6664L38.9745 18.45H38.978ZM27.3072 49.6285L20.6067 49.2877C20.1619 49.2561 19.731 48.859 19.5594 48.353L17.3668 40.5452C17.2232 39.5367 18.4176 38.9042 19.1671 39.5894L28.0603 47.7381C28.8028 48.4163 28.309 49.6531 27.3072 49.6285ZM31.9587 48.3917L17.0725 35.2428C16.4211 34.6665 16.316 33.6826 16.8309 32.9834L24.9079 22.006C25.2792 21.5036 25.7626 21.0924 26.3195 20.8113L35.8886 15.9481C36.5506 15.6108 37.3142 16.1555 37.2231 16.8899L33.3212 47.8751C33.2372 48.5322 32.4561 48.8309 31.9587 48.3917ZM48.435 60.0577C48.1618 60.4407 47.6645 60.5953 47.2231 60.4302L39.3457 57.4961C38.4771 57.1728 37.745 56.5649 37.2687 55.7673L34.9289 51.8669C34.6312 51.3714 34.8519 50.7249 35.3913 50.5175L60.1408 40.9036C60.9604 40.5839 61.689 41.5291 61.1776 42.2459L48.4385 60.0577H48.435ZM58.2949 58.0829L53.8676 59.5412C52.9569 59.8398 52.1969 58.7962 52.7573 58.0197L64.1548 42.1862C64.5506 41.6029 65.4473 41.7926 65.5804 42.4813L67.3842 51.9336C67.4753 52.4045 67.2581 52.8824 66.8448 53.1248L58.6732 57.9213C58.5541 57.9915 58.4245 58.0443 58.2879 58.0829H58.2949ZM67.4508 65.202L66.3825 66.8149C65.9762 67.4263 65.083 67.4333 64.6697 66.8289L60.2809 60.4231C59.9727 59.9734 60.1023 59.3549 60.5646 59.0703L66.3825 55.8059C66.8729 55.5283 67.4858 55.8586 67.5278 56.4244L68.0182 63.0304C68.0743 63.7965 67.8746 64.559 67.4508 65.202ZM77.7695 55.5318L75.6995 59.8012C75.5804 60.0472 75.3877 60.2545 75.1496 60.388L71.1881 62.1976C70.6312 62.5104 69.9412 62.1274 69.9096 61.4878L69.6294 55.2296C69.6014 54.6745 70.0427 54.2141 70.5961 54.2141L77.1846 54.5093C77.7065 54.5093 78.0357 55.0786 77.773 55.5318H77.7695ZM85.4368 41.1004L82.9639 50.746C82.8798 51.0692 82.6557 51.3363 82.351 51.4768L80.6137 52.2745C80.2704 52.4326 79.8991 52.5134 79.5208 52.5134H70.1478C69.752 52.5134 69.4158 52.2288 69.3562 51.8458L67.4228 39.9057C67.3387 39.3786 67.7695 38.9113 68.3054 38.9429L84.6101 39.9724C85.1811 40.0076 85.5804 40.5487 85.4403 41.1004H85.4368Z" stroke="black" stroke-width="8" mask="url(#path-1-inside-1_372_12)"/>
</g>
<defs>
<filter id="filter0_ddd_372_12" x="-0.000453949" y="6.19888e-06" width="101.956" height="88.4384" filterUnits="userSpaceOnUse" color-interpolation-filters="sRGB">
<feFlood flood-opacity="0" result="BackgroundImageFix"/>
<feColorMatrix in="SourceAlpha" type="matrix" values="0 0 0 0 0 0 0 0 0 0 0 0 0 0 0 0 0 0 127 0" result="hardAlpha"/>
<feOffset dy="4.39279"/>
<feGaussianBlur stdDeviation="6.83323"/>
<feColorMatrix type="matrix" values="0 0 0 0 0 0 0 0 0 0 0 0 0 0 0 0 0 0 0.1 0"/>
<feBlend mode="normal" in2="BackgroundImageFix" result="effect1_dropShadow_372_12"/>
<feColorMatrix in="SourceAlpha" type="matrix" values="0 0 0 0 0 0 0 0 0 0 0 0 0 0 0 0 0 0 127 0" result="hardAlpha"/>
<feOffset dy="2.44044"/>
<feGaussianBlur stdDeviation="2.1964"/>
<feColorMatrix type="matrix" values="0 0 0 0 0 0 0 0 0 0 0 0 0 0 0 0 0 0 0.05 0"/>
<feBlend mode="normal" in2="effect1_dropShadow_372_12" result="effect2_dropShadow_372_12"/>
<feColorMatrix in="SourceAlpha" type="matrix" values="0 0 0 0 0 0 0 0 0 0 0 0 0 0 0 0 0 0 127 0" result="hardAlpha"/>
<feOffset dy="0.976176"/>
<feGaussianBlur stdDeviation="0.732132"/>
<feColorMatrix type="matrix" values="0 0 0 0 0 0 0 0 0 0 0 0 0 0 0 0 0 0 0.04 0"/>
<feBlend mode="normal" in2="effect2_dropShadow_372_12" result="effect3_dropShadow_372_12"/>
<feBlend mode="normal" in="SourceGraphic" in2="effect3_dropShadow_372_12" result="shape"/>
</filter>
</defs>
</svg>
