<svg width="307" height="62" viewBox="0 0 307 62" fill="none" xmlns="http://www.w3.org/2000/svg">
<mask id="path-1-inside-1_15001_17" fill="white">
<path d="M74.4432 29.244L64.804 10.5678C64.6569 10.2902 64.4257 10.0618 64.142 9.92478L44.3312 0.152719C44.051 0.0156781 43.7322 -0.0300012 43.424 0.0191929L24.1771 3.28709C23.9109 3.33277 23.6517 3.42061 23.4135 3.54711L11.0703 10.1497C10.8111 10.2902 10.5834 10.4835 10.4083 10.7224L0.341736 24.2684C0.0229973 24.6971 -0.0785792 25.2452 0.0615258 25.7618L4.20163 40.8327C4.32772 41.286 4.72002 41.6128 5.18937 41.648L18.2261 42.6354C18.5169 42.6564 18.7831 42.8146 18.9407 43.0605L22.8321 49.006C23.0107 49.2766 23.2664 49.4839 23.5676 49.5963L34.2927 53.6619C34.5308 53.7532 34.7935 53.7638 35.0387 53.69L43.6132 51.4025C43.8653 51.3287 44.1385 51.4165 44.3032 51.6273L50.9722 60.6826C51.424 61.2659 52.3067 61.2413 52.727 60.6369L55.6377 56.357C55.8268 56.0689 56.093 55.837 56.4047 55.6859L62.9196 52.555C63.1158 52.4601 63.2804 52.3055 63.382 52.1123L67.0807 45.2145C67.1788 45.0353 67.3294 44.8913 67.5151 44.8069L70.4748 43.6509C70.7024 43.549 70.8741 43.3487 70.9406 43.1062L74.5658 30.4001C74.6744 30.01 74.6289 29.5954 74.4397 29.2405L74.4432 29.244ZM64.6079 14.4928L70.8215 27.0795C70.8881 27.213 70.9406 27.3571 70.9616 27.5082C71.0527 28.1371 70.6919 28.5904 69.9879 28.5869L55.7462 27.6101C55.0212 27.5609 54.6254 26.7421 55.0317 26.1378L62.9862 14.3769C63.389 13.7795 64.2891 13.8392 64.6079 14.4893V14.4928ZM27.9809 4.59073L42.3242 2.09237C42.9862 1.97642 43.6692 2.0748 44.2716 2.37348L61.0667 10.7084C61.8548 11.1019 62.1245 12.0964 61.6377 12.8343L52.8986 26.0921C52.4888 26.714 51.6272 26.8335 51.0632 26.3486L27.5676 6.09115C27.0177 5.61678 27.2664 4.71372 27.9809 4.58722V4.59073ZM25.3119 9.17633C25.403 8.3576 26.3662 7.96404 27.0037 8.48761L48.8531 26.8159C49.466 27.3184 49.3154 28.3023 48.5764 28.5939L23.6412 38.4785C22.9126 38.7666 22.1386 38.1728 22.2261 37.3927L25.3084 9.17633H25.3119ZM13.6412 40.3549L6.94068 40.014C6.49585 39.9824 6.06502 39.5853 5.89339 39.0793L3.70075 31.2715C3.55715 30.263 4.75154 29.6305 5.5011 30.3157L14.3943 38.4644C15.1368 39.1426 14.643 40.3795 13.6412 40.3549ZM18.2927 39.118L3.40653 25.9691C2.75504 25.3928 2.64996 24.4089 3.16485 23.7097L11.2419 12.7324C11.6132 12.2299 12.0965 11.8188 12.6535 11.5376L22.2226 6.67445C22.8846 6.33712 23.6482 6.88177 23.5571 7.61617L19.6552 38.6014C19.5711 39.2585 18.7901 39.5572 18.2927 39.118ZM34.769 50.784C34.4958 51.167 33.9984 51.3216 33.5571 51.1565L25.6797 48.2224C24.8111 47.8991 24.079 47.2912 23.6027 46.4936L21.2629 42.5932C20.9652 42.0977 21.1859 41.4512 21.7253 41.2439L46.4748 31.6299C47.2944 31.3102 48.023 32.2554 47.5116 32.9722L34.7725 50.784H34.769ZM44.6289 48.8092L40.2016 50.2675C39.2909 50.5662 38.5308 49.5225 39.0913 48.746L50.4888 32.9125C50.8846 32.3292 51.7813 32.5189 51.9144 33.2077L53.7182 42.66C53.8093 43.1308 53.5921 43.6087 53.1788 43.8512L45.0072 48.6476C44.8881 48.7179 44.7585 48.7706 44.6219 48.8092H44.6289ZM53.7848 55.9283L52.7165 57.5412C52.3102 58.1526 51.417 58.1596 51.0037 57.5552L46.6149 51.1495C46.3067 50.6997 46.4363 50.0813 46.8986 49.7966L52.7165 46.5322C53.2068 46.2546 53.8198 46.585 53.8618 47.1507L54.3522 53.7567C54.4082 54.5228 54.2086 55.2853 53.7848 55.9283ZM64.1035 46.2582L62.0334 50.5275C61.9144 50.7735 61.7217 50.9808 61.4835 51.1143L57.5221 52.924C56.9652 53.2367 56.2751 52.8537 56.2436 52.2142L55.9634 45.956C55.9354 45.4008 56.3767 44.9405 56.9301 44.9405L63.5186 45.2356C64.0405 45.2356 64.3697 45.8049 64.107 46.2582H64.1035ZM71.7707 31.8267L69.2979 41.4723C69.2138 41.7956 68.9897 42.0626 68.6849 42.2032L66.9476 43.0008C66.6044 43.1589 66.2331 43.2397 65.8548 43.2397H56.4818C56.086 43.2397 55.7497 42.9551 55.6902 42.5721L53.7568 30.632C53.6727 30.1049 54.1035 29.6376 54.6394 29.6692L70.9441 30.6988C71.5151 30.7339 71.9144 31.275 71.7742 31.8267H71.7707Z"/>
<path d="M114.184 40.6184H110.478L98.7094 26.9073C98.7094 26.9073 98.4397 26.8616 98.4397 26.9987V40.6184H94.0334V18.9519C94.0334 18.9519 94.1 18.7938 94.191 18.7938H97.6481C97.6481 18.7938 97.7392 18.7938 97.7847 18.8605L109.508 32.8879C109.508 32.8879 109.778 32.9336 109.778 32.7965V21.011C109.778 19.7636 110.772 18.7657 112.016 18.7657H114.026C114.026 18.7657 114.184 18.8324 114.184 18.9238V40.6184Z"/>
<path d="M134.674 40.6184H121.505C120.195 40.6184 119.154 39.5537 119.154 38.2606V18.7692H134.608V22.782H123.561V27.7014H131.76V31.644H123.561V36.6091H134.674V40.6219V40.6184Z"/>
<path d="M158.033 30.8499C158.033 36.9675 154.307 41.1174 148.681 41.1174C143.056 41.1174 139.102 36.971 139.102 30.8499V18.7692H141.34C142.538 18.7692 143.508 19.7425 143.508 20.9443V30.8253C143.508 34.4727 145.564 36.8551 148.66 36.8551C151.757 36.8551 153.585 34.4762 153.585 30.8253V18.7692H157.991V30.8253L158.037 30.8463L158.033 30.8499Z"/>
<path d="M174.888 40.6184L168.72 32.5962H166.415V40.6184H162.009V21.0813C162.009 19.8128 163.049 18.7692 164.314 18.7692H171.431C176.107 18.7692 179.224 21.5346 179.224 25.681C179.224 29.3284 177.396 31.9356 173.599 32.5014L180.286 40.6149H174.888V40.6184ZM171.41 28.5834C173.466 28.5834 174.821 27.4063 174.821 25.681C174.821 23.9556 173.466 22.7785 171.41 22.7785H166.419V28.5799H171.41V28.5834Z"/>
<path d="M249.935 40.6184L243.767 32.5962H241.462V40.6184H237.056V21.0813C237.056 19.8128 238.096 18.7692 239.361 18.7692H246.478C251.154 18.7692 254.271 21.5346 254.271 25.681C254.271 29.3284 252.443 31.9356 248.646 32.5014L255.333 40.6149H249.935V40.6184ZM246.457 28.5834C248.513 28.5834 249.869 27.4063 249.869 25.681C249.869 23.9556 248.513 22.7785 246.457 22.7785H241.466V28.5799H246.457V28.5834Z"/>
<path d="M206.131 29.7395C206.131 36.0855 201.095 41.1174 194.678 41.1174C188.261 41.1174 183.224 36.1101 183.224 29.7395C183.224 23.3688 188.261 18.2948 194.678 18.2948C201.095 18.2948 206.131 23.3723 206.131 29.7395ZM201.704 29.7395C201.704 25.5685 198.632 22.4658 194.702 22.4658C190.772 22.4658 187.701 25.572 187.701 29.7395C187.701 33.9069 190.772 36.9464 194.702 36.9464C198.632 36.9464 201.704 33.9104 201.704 29.7395Z"/>
<path d="M230.8 27.8806C231.841 27.8806 232.674 28.7415 232.674 29.7606C232.674 36.2436 227.567 41.0928 221.13 41.0928C214.692 41.0928 209.585 36.1066 209.585 29.6938C209.585 23.281 214.622 18.2948 221.018 18.2948C225.602 18.2948 230.506 21.1973 232.019 24.7322H226.485C225.49 23.2142 223.389 22.4658 221.018 22.4658C217.133 22.4658 214.082 25.5931 214.082 29.6938C214.082 33.7945 217.224 36.9675 221.287 36.9675C225.35 36.9675 228.019 33.8155 227.816 30.7796H220.18V28.9453C220.18 28.355 220.653 27.8806 221.242 27.8806H230.8Z"/>
<path d="M275.553 40.6184L273.68 35.9485H264.079L262.159 40.6184H257.392L266.201 20.1747C266.562 19.3349 267.399 18.7938 268.303 18.7938H270.923L280.345 40.643H275.578L275.553 40.6184ZM268.618 24.7744L265.704 31.9356H272.03L269.137 24.7744C269.046 24.5495 268.73 24.5495 268.618 24.7744Z"/>
<path d="M307 40.6184H302.709V29.107C302.709 28.8364 302.349 28.7451 302.212 28.9699L295.886 40.6184H293.897L287.053 28.0634V40.6184H282.762V18.7692H286.625L294.87 33.8647L302.303 20.3118C302.821 19.3595 303.816 18.7692 304.902 18.7692H306.979V40.6184H307Z"/>
</mask>
<path d="M74.4432 29.244L64.804 10.5678C64.6569 10.2902 64.4257 10.0618 64.142 9.92478L44.3312 0.152719C44.051 0.0156781 43.7322 -0.0300012 43.424 0.0191929L24.1771 3.28709C23.9109 3.33277 23.6517 3.42061 23.4135 3.54711L11.0703 10.1497C10.8111 10.2902 10.5834 10.4835 10.4083 10.7224L0.341736 24.2684C0.0229973 24.6971 -0.0785792 25.2452 0.0615258 25.7618L4.20163 40.8327C4.32772 41.286 4.72002 41.6128 5.18937 41.648L18.2261 42.6354C18.5169 42.6564 18.7831 42.8146 18.9407 43.0605L22.8321 49.006C23.0107 49.2766 23.2664 49.4839 23.5676 49.5963L34.2927 53.6619C34.5308 53.7532 34.7935 53.7638 35.0387 53.69L43.6132 51.4025C43.8653 51.3287 44.1385 51.4165 44.3032 51.6273L50.9722 60.6826C51.424 61.2659 52.3067 61.2413 52.727 60.6369L55.6377 56.357C55.8268 56.0689 56.093 55.837 56.4047 55.6859L62.9196 52.555C63.1158 52.4601 63.2804 52.3055 63.382 52.1123L67.0807 45.2145C67.1788 45.0353 67.3294 44.8913 67.5151 44.8069L70.4748 43.6509C70.7024 43.549 70.8741 43.3487 70.9406 43.1062L74.5658 30.4001C74.6744 30.01 74.6289 29.5954 74.4397 29.2405L74.4432 29.244ZM64.6079 14.4928L70.8215 27.0795C70.8881 27.213 70.9406 27.3571 70.9616 27.5082C71.0527 28.1371 70.6919 28.5904 69.9879 28.5869L55.7462 27.6101C55.0212 27.5609 54.6254 26.7421 55.0317 26.1378L62.9862 14.3769C63.389 13.7795 64.2891 13.8392 64.6079 14.4893V14.4928ZM27.9809 4.59073L42.3242 2.09237C42.9862 1.97642 43.6692 2.0748 44.2716 2.37348L61.0667 10.7084C61.8548 11.1019 62.1245 12.0964 61.6377 12.8343L52.8986 26.0921C52.4888 26.714 51.6272 26.8335 51.0632 26.3486L27.5676 6.09115C27.0177 5.61678 27.2664 4.71372 27.9809 4.58722V4.59073ZM25.3119 9.17633C25.403 8.3576 26.3662 7.96404 27.0037 8.48761L48.8531 26.8159C49.466 27.3184 49.3154 28.3023 48.5764 28.5939L23.6412 38.4785C22.9126 38.7666 22.1386 38.1728 22.2261 37.3927L25.3084 9.17633H25.3119ZM13.6412 40.3549L6.94068 40.014C6.49585 39.9824 6.06502 39.5853 5.89339 39.0793L3.70075 31.2715C3.55715 30.263 4.75154 29.6305 5.5011 30.3157L14.3943 38.4644C15.1368 39.1426 14.643 40.3795 13.6412 40.3549ZM18.2927 39.118L3.40653 25.9691C2.75504 25.3928 2.64996 24.4089 3.16485 23.7097L11.2419 12.7324C11.6132 12.2299 12.0965 11.8188 12.6535 11.5376L22.2226 6.67445C22.8846 6.33712 23.6482 6.88177 23.5571 7.61617L19.6552 38.6014C19.5711 39.2585 18.7901 39.5572 18.2927 39.118ZM34.769 50.784C34.4958 51.167 33.9984 51.3216 33.5571 51.1565L25.6797 48.2224C24.8111 47.8991 24.079 47.2912 23.6027 46.4936L21.2629 42.5932C20.9652 42.0977 21.1859 41.4512 21.7253 41.2439L46.4748 31.6299C47.2944 31.3102 48.023 32.2554 47.5116 32.9722L34.7725 50.784H34.769ZM44.6289 48.8092L40.2016 50.2675C39.2909 50.5662 38.5308 49.5225 39.0913 48.746L50.4888 32.9125C50.8846 32.3292 51.7813 32.5189 51.9144 33.2077L53.7182 42.66C53.8093 43.1308 53.5921 43.6087 53.1788 43.8512L45.0072 48.6476C44.8881 48.7179 44.7585 48.7706 44.6219 48.8092H44.6289ZM53.7848 55.9283L52.7165 57.5412C52.3102 58.1526 51.417 58.1596 51.0037 57.5552L46.6149 51.1495C46.3067 50.6997 46.4363 50.0813 46.8986 49.7966L52.7165 46.5322C53.2068 46.2546 53.8198 46.585 53.8618 47.1507L54.3522 53.7567C54.4082 54.5228 54.2086 55.2853 53.7848 55.9283ZM64.1035 46.2582L62.0334 50.5275C61.9144 50.7735 61.7217 50.9808 61.4835 51.1143L57.5221 52.924C56.9652 53.2367 56.2751 52.8537 56.2436 52.2142L55.9634 45.956C55.9354 45.4008 56.3767 44.9405 56.9301 44.9405L63.5186 45.2356C64.0405 45.2356 64.3697 45.8049 64.107 46.2582H64.1035ZM71.7707 31.8267L69.2979 41.4723C69.2138 41.7956 68.9897 42.0626 68.6849 42.2032L66.9476 43.0008C66.6044 43.1589 66.2331 43.2397 65.8548 43.2397H56.4818C56.086 43.2397 55.7497 42.9551 55.6902 42.5721L53.7568 30.632C53.6727 30.1049 54.1035 29.6376 54.6394 29.6692L70.9441 30.6988C71.5151 30.7339 71.9144 31.275 71.7742 31.8267H71.7707Z" fill="black"/>
<path d="M114.184 40.6184H110.478L98.7094 26.9073C98.7094 26.9073 98.4397 26.8616 98.4397 26.9987V40.6184H94.0334V18.9519C94.0334 18.9519 94.1 18.7938 94.191 18.7938H97.6481C97.6481 18.7938 97.7392 18.7938 97.7847 18.8605L109.508 32.8879C109.508 32.8879 109.778 32.9336 109.778 32.7965V21.011C109.778 19.7636 110.772 18.7657 112.016 18.7657H114.026C114.026 18.7657 114.184 18.8324 114.184 18.9238V40.6184Z" fill="black"/>
<path d="M134.674 40.6184H121.505C120.195 40.6184 119.154 39.5537 119.154 38.2606V18.7692H134.608V22.782H123.561V27.7014H131.76V31.644H123.561V36.6091H134.674V40.6219V40.6184Z" fill="black"/>
<path d="M158.033 30.8499C158.033 36.9675 154.307 41.1174 148.681 41.1174C143.056 41.1174 139.102 36.971 139.102 30.8499V18.7692H141.34C142.538 18.7692 143.508 19.7425 143.508 20.9443V30.8253C143.508 34.4727 145.564 36.8551 148.66 36.8551C151.757 36.8551 153.585 34.4762 153.585 30.8253V18.7692H157.991V30.8253L158.037 30.8463L158.033 30.8499Z" fill="black"/>
<path d="M174.888 40.6184L168.72 32.5962H166.415V40.6184H162.009V21.0813C162.009 19.8128 163.049 18.7692 164.314 18.7692H171.431C176.107 18.7692 179.224 21.5346 179.224 25.681C179.224 29.3284 177.396 31.9356 173.599 32.5014L180.286 40.6149H174.888V40.6184ZM171.41 28.5834C173.466 28.5834 174.821 27.4063 174.821 25.681C174.821 23.9556 173.466 22.7785 171.41 22.7785H166.419V28.5799H171.41V28.5834Z" fill="black"/>
<path d="M249.935 40.6184L243.767 32.5962H241.462V40.6184H237.056V21.0813C237.056 19.8128 238.096 18.7692 239.361 18.7692H246.478C251.154 18.7692 254.271 21.5346 254.271 25.681C254.271 29.3284 252.443 31.9356 248.646 32.5014L255.333 40.6149H249.935V40.6184ZM246.457 28.5834C248.513 28.5834 249.869 27.4063 249.869 25.681C249.869 23.9556 248.513 22.7785 246.457 22.7785H241.466V28.5799H246.457V28.5834Z" fill="black"/>
<path d="M206.131 29.7395C206.131 36.0855 201.095 41.1174 194.678 41.1174C188.261 41.1174 183.224 36.1101 183.224 29.7395C183.224 23.3688 188.261 18.2948 194.678 18.2948C201.095 18.2948 206.131 23.3723 206.131 29.7395ZM201.704 29.7395C201.704 25.5685 198.632 22.4658 194.702 22.4658C190.772 22.4658 187.701 25.572 187.701 29.7395C187.701 33.9069 190.772 36.9464 194.702 36.9464C198.632 36.9464 201.704 33.9104 201.704 29.7395Z" fill="black"/>
<path d="M230.8 27.8806C231.841 27.8806 232.674 28.7415 232.674 29.7606C232.674 36.2436 227.567 41.0928 221.13 41.0928C214.692 41.0928 209.585 36.1066 209.585 29.6938C209.585 23.281 214.622 18.2948 221.018 18.2948C225.602 18.2948 230.506 21.1973 232.019 24.7322H226.485C225.49 23.2142 223.389 22.4658 221.018 22.4658C217.133 22.4658 214.082 25.5931 214.082 29.6938C214.082 33.7945 217.224 36.9675 221.287 36.9675C225.35 36.9675 228.019 33.8155 227.816 30.7796H220.18V28.9453C220.18 28.355 220.653 27.8806 221.242 27.8806H230.8Z" fill="black"/>
<path d="M275.553 40.6184L273.68 35.9485H264.079L262.159 40.6184H257.392L266.201 20.1747C266.562 19.3349 267.399 18.7938 268.303 18.7938H270.923L280.345 40.643H275.578L275.553 40.6184ZM268.618 24.7744L265.704 31.9356H272.03L269.137 24.7744C269.046 24.5495 268.73 24.5495 268.618 24.7744Z" fill="black"/>
<path d="M307 40.6184H302.709V29.107C302.709 28.8364 302.349 28.7451 302.212 28.9699L295.886 40.6184H293.897L287.053 28.0634V40.6184H282.762V18.7692H286.625L294.87 33.8647L302.303 20.3118C302.821 19.3595 303.816 18.7692 304.902 18.7692H306.979V40.6184H307Z" fill="black"/>
<path d="M74.4432 29.244L64.804 10.5678C64.6569 10.2902 64.4257 10.0618 64.142 9.92478L44.3312 0.152719C44.051 0.0156781 43.7322 -0.0300012 43.424 0.0191929L24.1771 3.28709C23.9109 3.33277 23.6517 3.42061 23.4135 3.54711L11.0703 10.1497C10.8111 10.2902 10.5834 10.4835 10.4083 10.7224L0.341736 24.2684C0.0229973 24.6971 -0.0785792 25.2452 0.0615258 25.7618L4.20163 40.8327C4.32772 41.286 4.72002 41.6128 5.18937 41.648L18.2261 42.6354C18.5169 42.6564 18.7831 42.8146 18.9407 43.0605L22.8321 49.006C23.0107 49.2766 23.2664 49.4839 23.5676 49.5963L34.2927 53.6619C34.5308 53.7532 34.7935 53.7638 35.0387 53.69L43.6132 51.4025C43.8653 51.3287 44.1385 51.4165 44.3032 51.6273L50.9722 60.6826C51.424 61.2659 52.3067 61.2413 52.727 60.6369L55.6377 56.357C55.8268 56.0689 56.093 55.837 56.4047 55.6859L62.9196 52.555C63.1158 52.4601 63.2804 52.3055 63.382 52.1123L67.0807 45.2145C67.1788 45.0353 67.3294 44.8913 67.5151 44.8069L70.4748 43.6509C70.7024 43.549 70.8741 43.3487 70.9406 43.1062L74.5658 30.4001C74.6744 30.01 74.6289 29.5954 74.4397 29.2405L74.4432 29.244ZM64.6079 14.4928L70.8215 27.0795C70.8881 27.213 70.9406 27.3571 70.9616 27.5082C71.0527 28.1371 70.6919 28.5904 69.9879 28.5869L55.7462 27.6101C55.0212 27.5609 54.6254 26.7421 55.0317 26.1378L62.9862 14.3769C63.389 13.7795 64.2891 13.8392 64.6079 14.4893V14.4928ZM27.9809 4.59073L42.3242 2.09237C42.9862 1.97642 43.6692 2.0748 44.2716 2.37348L61.0667 10.7084C61.8548 11.1019 62.1245 12.0964 61.6377 12.8343L52.8986 26.0921C52.4888 26.714 51.6272 26.8335 51.0632 26.3486L27.5676 6.09115C27.0177 5.61678 27.2664 4.71372 27.9809 4.58722V4.59073ZM25.3119 9.17633C25.403 8.3576 26.3662 7.96404 27.0037 8.48761L48.8531 26.8159C49.466 27.3184 49.3154 28.3023 48.5764 28.5939L23.6412 38.4785C22.9126 38.7666 22.1386 38.1728 22.2261 37.3927L25.3084 9.17633H25.3119ZM13.6412 40.3549L6.94068 40.014C6.49585 39.9824 6.06502 39.5853 5.89339 39.0793L3.70075 31.2715C3.55715 30.263 4.75154 29.6305 5.5011 30.3157L14.3943 38.4644C15.1368 39.1426 14.643 40.3795 13.6412 40.3549ZM18.2927 39.118L3.40653 25.9691C2.75504 25.3928 2.64996 24.4089 3.16485 23.7097L11.2419 12.7324C11.6132 12.2299 12.0965 11.8188 12.6535 11.5376L22.2226 6.67445C22.8846 6.33712 23.6482 6.88177 23.5571 7.61617L19.6552 38.6014C19.5711 39.2585 18.7901 39.5572 18.2927 39.118ZM34.769 50.784C34.4958 51.167 33.9984 51.3216 33.5571 51.1565L25.6797 48.2224C24.8111 47.8991 24.079 47.2912 23.6027 46.4936L21.2629 42.5932C20.9652 42.0977 21.1859 41.4512 21.7253 41.2439L46.4748 31.6299C47.2944 31.3102 48.023 32.2554 47.5116 32.9722L34.7725 50.784H34.769ZM44.6289 48.8092L40.2016 50.2675C39.2909 50.5662 38.5308 49.5225 39.0913 48.746L50.4888 32.9125C50.8846 32.3292 51.7813 32.5189 51.9144 33.2077L53.7182 42.66C53.8093 43.1308 53.5921 43.6087 53.1788 43.8512L45.0072 48.6476C44.8881 48.7179 44.7585 48.7706 44.6219 48.8092H44.6289ZM53.7848 55.9283L52.7165 57.5412C52.3102 58.1526 51.417 58.1596 51.0037 57.5552L46.6149 51.1495C46.3067 50.6997 46.4363 50.0813 46.8986 49.7966L52.7165 46.5322C53.2068 46.2546 53.8198 46.585 53.8618 47.1507L54.3522 53.7567C54.4082 54.5228 54.2086 55.2853 53.7848 55.9283ZM64.1035 46.2582L62.0334 50.5275C61.9144 50.7735 61.7217 50.9808 61.4835 51.1143L57.5221 52.924C56.9652 53.2367 56.2751 52.8537 56.2436 52.2142L55.9634 45.956C55.9354 45.4008 56.3767 44.9405 56.9301 44.9405L63.5186 45.2356C64.0405 45.2356 64.3697 45.8049 64.107 46.2582H64.1035ZM71.7707 31.8267L69.2979 41.4723C69.2138 41.7956 68.9897 42.0626 68.6849 42.2032L66.9476 43.0008C66.6044 43.1589 66.2331 43.2397 65.8548 43.2397H56.4818C56.086 43.2397 55.7497 42.9551 55.6902 42.5721L53.7568 30.632C53.6727 30.1049 54.1035 29.6376 54.6394 29.6692L70.9441 30.6988C71.5151 30.7339 71.9144 31.275 71.7742 31.8267H71.7707Z" stroke="black" stroke-width="8" mask="url(#path-1-inside-1_15001_17)"/>
<path d="M114.184 40.6184H110.478L98.7094 26.9073C98.7094 26.9073 98.4397 26.8616 98.4397 26.9987V40.6184H94.0334V18.9519C94.0334 18.9519 94.1 18.7938 94.191 18.7938H97.6481C97.6481 18.7938 97.7392 18.7938 97.7847 18.8605L109.508 32.8879C109.508 32.8879 109.778 32.9336 109.778 32.7965V21.011C109.778 19.7636 110.772 18.7657 112.016 18.7657H114.026C114.026 18.7657 114.184 18.8324 114.184 18.9238V40.6184Z" stroke="black" stroke-width="8" mask="url(#path-1-inside-1_15001_17)"/>
<path d="M134.674 40.6184H121.505C120.195 40.6184 119.154 39.5537 119.154 38.2606V18.7692H134.608V22.782H123.561V27.7014H131.76V31.644H123.561V36.6091H134.674V40.6219V40.6184Z" stroke="black" stroke-width="8" mask="url(#path-1-inside-1_15001_17)"/>
<path d="M158.033 30.8499C158.033 36.9675 154.307 41.1174 148.681 41.1174C143.056 41.1174 139.102 36.971 139.102 30.8499V18.7692H141.34C142.538 18.7692 143.508 19.7425 143.508 20.9443V30.8253C143.508 34.4727 145.564 36.8551 148.66 36.8551C151.757 36.8551 153.585 34.4762 153.585 30.8253V18.7692H157.991V30.8253L158.037 30.8463L158.033 30.8499Z" stroke="black" stroke-width="8" mask="url(#path-1-inside-1_15001_17)"/>
<path d="M174.888 40.6184L168.72 32.5962H166.415V40.6184H162.009V21.0813C162.009 19.8128 163.049 18.7692 164.314 18.7692H171.431C176.107 18.7692 179.224 21.5346 179.224 25.681C179.224 29.3284 177.396 31.9356 173.599 32.5014L180.286 40.6149H174.888V40.6184ZM171.41 28.5834C173.466 28.5834 174.821 27.4063 174.821 25.681C174.821 23.9556 173.466 22.7785 171.41 22.7785H166.419V28.5799H171.41V28.5834Z" stroke="black" stroke-width="8" mask="url(#path-1-inside-1_15001_17)"/>
<path d="M249.935 40.6184L243.767 32.5962H241.462V40.6184H237.056V21.0813C237.056 19.8128 238.096 18.7692 239.361 18.7692H246.478C251.154 18.7692 254.271 21.5346 254.271 25.681C254.271 29.3284 252.443 31.9356 248.646 32.5014L255.333 40.6149H249.935V40.6184ZM246.457 28.5834C248.513 28.5834 249.869 27.4063 249.869 25.681C249.869 23.9556 248.513 22.7785 246.457 22.7785H241.466V28.5799H246.457V28.5834Z" stroke="black" stroke-width="8" mask="url(#path-1-inside-1_15001_17)"/>
<path d="M206.131 29.7395C206.131 36.0855 201.095 41.1174 194.678 41.1174C188.261 41.1174 183.224 36.1101 183.224 29.7395C183.224 23.3688 188.261 18.2948 194.678 18.2948C201.095 18.2948 206.131 23.3723 206.131 29.7395ZM201.704 29.7395C201.704 25.5685 198.632 22.4658 194.702 22.4658C190.772 22.4658 187.701 25.572 187.701 29.7395C187.701 33.9069 190.772 36.9464 194.702 36.9464C198.632 36.9464 201.704 33.9104 201.704 29.7395Z" stroke="black" stroke-width="8" mask="url(#path-1-inside-1_15001_17)"/>
<path d="M230.8 27.8806C231.841 27.8806 232.674 28.7415 232.674 29.7606C232.674 36.2436 227.567 41.0928 221.13 41.0928C214.692 41.0928 209.585 36.1066 209.585 29.6938C209.585 23.281 214.622 18.2948 221.018 18.2948C225.602 18.2948 230.506 21.1973 232.019 24.7322H226.485C225.49 23.2142 223.389 22.4658 221.018 22.4658C217.133 22.4658 214.082 25.5931 214.082 29.6938C214.082 33.7945 217.224 36.9675 221.287 36.9675C225.35 36.9675 228.019 33.8155 227.816 30.7796H220.18V28.9453C220.18 28.355 220.653 27.8806 221.242 27.8806H230.8Z" stroke="black" stroke-width="8" mask="url(#path-1-inside-1_15001_17)"/>
<path d="M275.553 40.6184L273.68 35.9485H264.079L262.159 40.6184H257.392L266.201 20.1747C266.562 19.3349 267.399 18.7938 268.303 18.7938H270.923L280.345 40.643H275.578L275.553 40.6184ZM268.618 24.7744L265.704 31.9356H272.03L269.137 24.7744C269.046 24.5495 268.73 24.5495 268.618 24.7744Z" stroke="black" stroke-width="8" mask="url(#path-1-inside-1_15001_17)"/>
<path d="M307 40.6184H302.709V29.107C302.709 28.8364 302.349 28.7451 302.212 28.9699L295.886 40.6184H293.897L287.053 28.0634V40.6184H282.762V18.7692H286.625L294.87 33.8647L302.303 20.3118C302.821 19.3595 303.816 18.7692 304.902 18.7692H306.979V40.6184H307Z" stroke="black" stroke-width="8" mask="url(#path-1-inside-1_15001_17)"/>
</svg>
