<svg width="335" height="89" viewBox="0 0 335 89" fill="none" xmlns="http://www.w3.org/2000/svg">
<g filter="url(#filter0_ddd_15001_17)">
<path d="M88.1097 38.5177L78.4705 19.8415C78.3234 19.5639 78.0922 19.3355 77.8085 19.1985L57.9977 9.4264C57.7175 9.28936 57.3987 9.24368 57.0905 9.29287L37.8436 12.5608C37.5774 12.6065 37.3182 12.6943 37.08 12.8208L24.7367 19.4234C24.4776 19.5639 24.2499 19.7572 24.0748 19.9961L14.0082 33.5421C13.6895 33.9708 13.5879 34.5189 13.728 35.0355L17.8681 50.1064C17.9942 50.5597 18.3865 50.8865 18.8558 50.9217L31.8926 51.909C32.1833 51.9301 32.4495 52.0883 32.6071 52.3342L36.4986 58.2797C36.6772 58.5503 36.9329 58.7576 37.2341 58.87L47.9591 62.9356C48.1973 63.0269 48.46 63.0375 48.7052 62.9637L57.2796 60.6761C57.5318 60.6023 57.805 60.6902 57.9696 60.901L64.6386 69.9563C65.0905 70.5396 65.9731 70.515 66.3935 69.9106L69.3041 65.6307C69.4933 65.3426 69.7595 65.1106 70.0712 64.9595L76.5861 61.8287C76.7822 61.7338 76.9469 61.5792 77.0484 61.3859L80.7472 54.4882C80.8453 54.309 80.9959 54.1649 81.1815 54.0806L84.1412 52.9245C84.3689 52.8226 84.5405 52.6224 84.6071 52.3799L88.2323 39.6738C88.3409 39.2837 88.2954 38.8691 88.1062 38.5142L88.1097 38.5177ZM78.2743 23.7665L84.488 36.3532C84.5546 36.4867 84.6071 36.6308 84.6281 36.7818C84.7192 37.4108 84.3584 37.8641 83.6544 37.8606L69.4127 36.8838C68.6877 36.8346 68.2919 36.0158 68.6982 35.4114L76.6526 23.6505C77.0554 23.0532 77.9556 23.1129 78.2743 23.763V23.7665ZM41.6474 13.8644L55.9907 11.3661C56.6527 11.2501 57.3357 11.3485 57.9381 11.6472L74.7332 19.9821C75.5213 20.3756 75.791 21.37 75.3041 22.1079L66.5651 35.3658C66.1553 35.9877 65.2936 36.1072 64.7297 35.6223L41.2341 15.3648C40.6842 14.8905 40.9329 13.9874 41.6474 13.8609V13.8644ZM38.9784 18.45C39.0695 17.6313 40.0327 17.2377 40.6702 17.7613L62.5196 36.0896C63.1325 36.5921 62.9819 37.576 62.2428 37.8676L37.3077 47.7521C36.5791 48.0403 35.805 47.4464 35.8926 46.6664L38.9749 18.45H38.9784ZM27.3077 49.6285L20.6072 49.2877C20.1623 49.2561 19.7315 48.859 19.5599 48.353L17.3672 40.5452C17.2236 39.5367 18.418 38.9042 19.1676 39.5894L28.0607 47.7381C28.8033 48.4163 28.3094 49.6531 27.3077 49.6285ZM31.9592 48.3917L17.073 35.2428C16.4215 34.6665 16.3164 33.6826 16.8313 32.9834L24.9084 22.006C25.2797 21.5036 25.763 21.0924 26.3199 20.8113L35.8891 15.9481C36.5511 15.6108 37.3147 16.1555 37.2236 16.8899L33.3217 47.8751C33.2376 48.5322 32.4565 48.8309 31.9592 48.3917ZM48.4355 60.0577C48.1623 60.4407 47.6649 60.5953 47.2236 60.4302L39.3462 57.4961C38.4775 57.1728 37.7455 56.5649 37.2691 55.7673L34.9294 51.8669C34.6317 51.3714 34.8523 50.7249 35.3917 50.5175L60.1413 40.9036C60.9609 40.5839 61.6894 41.5291 61.178 42.2459L48.439 60.0577H48.4355ZM58.2954 58.0829L53.8681 59.5412C52.9574 59.8398 52.1973 58.7962 52.7577 58.0197L64.1553 42.1862C64.5511 41.6029 65.4477 41.7926 65.5808 42.4813L67.3847 51.9336C67.4758 52.4045 67.2586 52.8824 66.8453 53.1248L58.6737 57.9213C58.5546 57.9915 58.425 58.0443 58.2884 58.0829H58.2954ZM67.4512 65.202L66.3829 66.8149C65.9766 67.4263 65.0835 67.4333 64.6702 66.8289L60.2814 60.4231C59.9731 59.9734 60.1027 59.3549 60.5651 59.0703L66.3829 55.8059C66.8733 55.5283 67.4863 55.8586 67.5283 56.4244L68.0187 63.0304C68.0747 63.7965 67.8751 64.559 67.4512 65.202ZM77.77 55.5318L75.6999 59.8012C75.5808 60.0472 75.3882 60.2545 75.15 60.388L71.1885 62.1976C70.6316 62.5104 69.9416 62.1274 69.9101 61.4878L69.6299 55.2296C69.6019 54.6745 70.0432 54.2141 70.5966 54.2141L77.185 54.5093C77.7069 54.5093 78.0362 55.0786 77.7735 55.5318H77.77ZM85.4372 41.1004L82.9644 50.746C82.8803 51.0692 82.6561 51.3363 82.3514 51.4768L80.6141 52.2745C80.2709 52.4326 79.8996 52.5134 79.5213 52.5134H70.1483C69.7525 52.5134 69.4162 52.2288 69.3567 51.8458L67.4232 39.9057C67.3392 39.3786 67.77 38.9113 68.3059 38.9429L84.6106 39.9724C85.1815 40.0076 85.5808 40.5487 85.4407 41.1004H85.4372Z" fill="black"/>
<path d="M127.85 49.8921H124.145L112.376 36.181C112.376 36.181 112.106 36.1353 112.106 36.2723V49.8921H107.7V28.2256C107.7 28.2256 107.766 28.0675 107.858 28.0675H111.315C111.315 28.0675 111.406 28.0675 111.451 28.1342L123.174 42.1616C123.174 42.1616 123.444 42.2073 123.444 42.0702V30.2847C123.444 29.0373 124.439 28.0393 125.682 28.0393H127.693C127.693 28.0393 127.85 28.1061 127.85 28.1975V49.8921Z" fill="black"/>
<path d="M148.341 49.8921H135.171C133.861 49.8921 132.821 48.8274 132.821 47.5343V28.0429H148.274V32.0557H137.227V36.9751H145.427V40.9177H137.227V45.8828H148.341V49.8956V49.8921Z" fill="black"/>
<path d="M171.7 40.1235C171.7 46.2412 167.973 50.3911 162.348 50.3911C156.723 50.3911 152.768 46.2447 152.768 40.1235V28.0429H155.006C156.204 28.0429 157.174 29.0162 157.174 30.2179V40.0989C157.174 43.7463 159.231 46.1287 162.327 46.1287C165.423 46.1287 167.252 43.7498 167.252 40.0989V28.0429H171.658V40.0989L171.703 40.12L171.7 40.1235Z" fill="black"/>
<path d="M188.554 49.8921L182.386 41.8699H180.082V49.8921H175.675V30.355C175.675 29.0865 176.716 28.0429 177.98 28.0429H185.097C189.773 28.0429 192.891 30.8083 192.891 34.9546C192.891 38.602 191.062 41.2093 187.265 41.7751L193.952 49.8886H188.554V49.8921ZM185.076 37.8571C187.132 37.8571 188.488 36.6799 188.488 34.9546C188.488 33.2293 187.132 32.0522 185.076 32.0522H180.085V37.8536H185.076V37.8571Z" fill="black"/>
<path d="M263.602 49.8921L257.434 41.8699H255.129V49.8921H250.723V30.355C250.723 29.0865 251.763 28.0429 253.027 28.0429H260.145C264.821 28.0429 267.938 30.8083 267.938 34.9546C267.938 38.602 266.11 41.2093 262.313 41.7751L268.999 49.8886H263.602V49.8921ZM260.124 37.8571C262.18 37.8571 263.535 36.6799 263.535 34.9546C263.535 33.2293 262.18 32.0522 260.124 32.0522H255.132V37.8536H260.124V37.8571Z" fill="black"/>
<path d="M219.798 39.0132C219.798 45.3592 214.761 50.391 208.344 50.391C201.928 50.391 196.891 45.3838 196.891 39.0132C196.891 32.6425 201.928 27.5685 208.344 27.5685C214.761 27.5685 219.798 32.646 219.798 39.0132ZM215.371 39.0132C215.371 34.8422 212.299 31.7394 208.369 31.7394C204.439 31.7394 201.367 34.8457 201.367 39.0132C201.367 43.1806 204.439 46.2201 208.369 46.2201C212.299 46.2201 215.371 43.1841 215.371 39.0132Z" fill="black"/>
<path d="M244.467 37.1543C245.507 37.1543 246.341 38.0152 246.341 39.0342C246.341 45.5173 241.234 50.3665 234.796 50.3665C228.358 50.3665 223.251 45.3803 223.251 38.9675C223.251 32.5547 228.288 27.5685 234.684 27.5685C239.269 27.5685 244.173 30.4709 245.686 34.0059H240.152C239.157 32.4879 237.055 31.7394 234.684 31.7394C230.8 31.7394 227.749 34.8668 227.749 38.9675C227.749 43.0681 230.891 46.2412 234.954 46.2412C239.017 46.2412 241.686 43.0892 241.483 40.0532H233.847V38.219C233.847 37.6287 234.32 37.1543 234.908 37.1543H244.467Z" fill="black"/>
<path d="M289.22 49.8921L287.346 45.2222H277.745L275.826 49.8921H271.059L279.868 29.4484C280.229 28.6086 281.066 28.0675 281.969 28.0675H284.589L294.011 49.9167H289.244L289.22 49.8921ZM282.285 34.0481L279.371 41.2093H285.696L282.803 34.0481C282.712 33.8232 282.397 33.8232 282.285 34.0481Z" fill="black"/>
<path d="M320.666 49.8921H316.376V38.3807C316.376 38.1101 316.015 38.0187 315.878 38.2436L309.553 49.8921H307.563L300.719 37.337V49.8921H296.428V28.0429H300.292L308.537 43.1384L315.969 29.5855C316.488 28.6332 317.483 28.0429 318.568 28.0429H320.645V49.8921H320.666Z" fill="black"/>
</g>
<defs>
<filter id="filter0_ddd_15001_17" x="3.8147e-06" y="6.19888e-06" width="334.333" height="88.4385" filterUnits="userSpaceOnUse" color-interpolation-filters="sRGB">
<feFlood flood-opacity="0" result="BackgroundImageFix"/>
<feColorMatrix in="SourceAlpha" type="matrix" values="0 0 0 0 0 0 0 0 0 0 0 0 0 0 0 0 0 0 127 0" result="hardAlpha"/>
<feOffset dy="4.39279"/>
<feGaussianBlur stdDeviation="6.83323"/>
<feColorMatrix type="matrix" values="0 0 0 0 0 0 0 0 0 0 0 0 0 0 0 0 0 0 0.1 0"/>
<feBlend mode="normal" in2="BackgroundImageFix" result="effect1_dropShadow_15001_17"/>
<feColorMatrix in="SourceAlpha" type="matrix" values="0 0 0 0 0 0 0 0 0 0 0 0 0 0 0 0 0 0 127 0" result="hardAlpha"/>
<feOffset dy="2.44044"/>
<feGaussianBlur stdDeviation="2.1964"/>
<feColorMatrix type="matrix" values="0 0 0 0 0 0 0 0 0 0 0 0 0 0 0 0 0 0 0.05 0"/>
<feBlend mode="normal" in2="effect1_dropShadow_15001_17" result="effect2_dropShadow_15001_17"/>
<feColorMatrix in="SourceAlpha" type="matrix" values="0 0 0 0 0 0 0 0 0 0 0 0 0 0 0 0 0 0 127 0" result="hardAlpha"/>
<feOffset dy="0.976176"/>
<feGaussianBlur stdDeviation="0.732132"/>
<feColorMatrix type="matrix" values="0 0 0 0 0 0 0 0 0 0 0 0 0 0 0 0 0 0 0.04 0"/>
<feBlend mode="normal" in2="effect2_dropShadow_15001_17" result="effect3_dropShadow_15001_17"/>
<feBlend mode="normal" in="SourceGraphic" in2="effect3_dropShadow_15001_17" result="shape"/>
</filter>
</defs>
</svg>
